<?xml version="1.0" encoding="utf-8"?>
<svg xmlns="http://www.w3.org/2000/svg" viewBox="0 0 100 100" width="500" height="500">
  <path fill="#c7ede6" d="M87.215,56.71C88.35,54.555,89,52.105,89,49.5c0-6.621-4.159-12.257-10.001-14.478 C78.999,35.015,79,35.008,79,35c0-11.598-9.402-21-21-21c-9.784,0-17.981,6.701-20.313,15.757C36.211,29.272,34.638,29,33,29 c-7.692,0-14.023,5.793-14.89,13.252C12.906,43.353,9,47.969,9,53.5C9,59.851,14.149,65,20.5,65c0.177,0,0.352-0.012,0.526-0.022 C21.022,65.153,21,65.324,21,65.5C21,76.822,30.178,86,41.5,86c6.437,0,12.175-2.972,15.934-7.614C59.612,80.611,62.64,82,66,82 c4.65,0,8.674-2.65,10.666-6.518C77.718,75.817,78.837,76,80,76c6.075,0,11-4.925,11-11C91,61.689,89.53,58.727,87.215,56.71z" />
  <path fill="#fdfcef" d="M79.5,60.5c0,0,4.015,0,6.5,0s4.5-2.015,4.5-4.5c0-2.333-1.782-4.229-4.055-4.455 C86.467,51.364,86.5,51.187,86.5,51c0-2.485-2.015-4.5-4.5-4.5c-1.438,0-2.703,0.686-3.527,1.736 C78.333,45.6,76.171,43.5,73.5,43.5c-2.761,0-5,2.239-5,5c0,0.446,0.077,0.87,0.187,1.282C68.045,49.005,67.086,48.5,66,48.5 c-1.781,0-3.234,1.335-3.455,3.055C62.364,51.533,62.187,51.5,62,51.5c-2.485,0-4.5,2.015-4.5,4.5s2.015,4.5,4.5,4.5s9.5,0,9.5,0h5 V61h3V60.5z" />
  <path fill="#472b29" d="M73.5,43c-3.033,0-5.5,2.467-5.5,5.5c0,0.016,0,0.031,0,0.047C67.398,48.192,66.71,48,66,48 c-1.831,0-3.411,1.261-3.858,3.005C62.095,51.002,62.048,51,62,51c-2.757,0-5,2.243-5,5s2.243,5,5,5h14.5 c0.276,0,0.5-0.224,0.5-0.5S76.776,60,76.5,60H62c-2.206,0-4-1.794-4-4s1.794-4,4-4c0.117,0,0.23,0.017,0.343,0.032l0.141,0.019 c0.021,0.003,0.041,0.004,0.062,0.004c0.246,0,0.462-0.185,0.495-0.437C63.232,50.125,64.504,49,66,49 c0.885,0,1.723,0.401,2.301,1.1c0.098,0.118,0.241,0.182,0.386,0.182c0.078,0,0.156-0.018,0.228-0.056 c0.209-0.107,0.314-0.346,0.254-0.573C69.054,49.218,69,48.852,69,48.5c0-2.481,2.019-4.5,4.5-4.5c2.381,0,4.347,1.872,4.474,4.263 c0.011,0.208,0.15,0.387,0.349,0.45c0.05,0.016,0.101,0.024,0.152,0.024c0.15,0,0.296-0.069,0.392-0.192 C79.638,47.563,80.779,47,82,47c2.206,0,4,1.794,4,4c0,0.117-0.017,0.23-0.032,0.343l-0.019,0.141 c-0.016,0.134,0.022,0.268,0.106,0.373s0.207,0.172,0.34,0.185C88.451,52.247,90,53.949,90,56c0,2.206-1.794,4-4,4h-6.5 c-0.276,0-0.5,0.224-0.5,0.5s0.224,0.5,0.5,0.5H86c2.757,0,5-2.243,5-5c0-2.397-1.689-4.413-4.003-4.877 C86.999,51.082,87,51.041,87,51c0-2.757-2.243-5-5-5c-1.176,0-2.293,0.416-3.183,1.164C78.219,44.76,76.055,43,73.5,43L73.5,43z" />
  <path fill="#472b29" d="M72 50c-1.403 0-2.609.999-2.913 2.341C68.72 52.119 68.301 52 67.875 52c-1.202 0-2.198.897-2.353 2.068C65.319 54.022 65.126 54 64.937 54c-1.529 0-2.811 1.2-2.918 2.732C62.01 56.87 62.114 56.99 62.251 57c.006 0 .012 0 .018 0 .13 0 .24-.101.249-.232.089-1.271 1.151-2.268 2.419-2.268.229 0 .47.042.738.127.022.007.045.01.067.01.055 0 .11-.02.156-.054C65.962 54.537 66 54.455 66 54.375c0-1.034.841-1.875 1.875-1.875.447 0 .885.168 1.231.473.047.041.106.063.165.063.032 0 .063-.006.093-.019.088-.035.148-.117.155-.212C69.623 51.512 70.712 50.5 72 50.5c.208 0 .425.034.682.107.023.007.047.01.07.01.109 0 .207-.073.239-.182.038-.133-.039-.271-.172-.309C72.517 50.04 72.256 50 72 50L72 50zM85.883 51.5c-1.326 0-2.508.897-2.874 2.182-.038.133.039.271.172.309C83.205 53.997 83.228 54 83.25 54c.109 0 .209-.072.24-.182C83.795 52.748 84.779 52 85.883 52c.117 0 .23.014.342.029.012.002.023.003.035.003.121 0 .229-.092.246-.217.019-.137-.077-.263-.214-.281C86.158 51.516 86.022 51.5 85.883 51.5L85.883 51.5z" />
  <path fill="#fff" d="M15.5 55h-10C5.224 55 5 54.776 5 54.5S5.224 54 5.5 54h10c.276 0 .5.224.5.5S15.777 55 15.5 55zM18.5 55h-1c-.276 0-.5-.224-.5-.5s.224-.5.5-.5h1c.276 0 .5.224.5.5S18.777 55 18.5 55zM23.491 57H14.5c-.276 0-.5-.224-.5-.5s.224-.5.5-.5h8.991c.276 0 .5.224.5.5S23.767 57 23.491 57zM12.5 57h-1c-.276 0-.5-.224-.5-.5s.224-.5.5-.5h1c.276 0 .5.224.5.5S12.777 57 12.5 57zM9.5 57h-2C7.224 57 7 56.776 7 56.5S7.224 56 7.5 56h2c.276 0 .5.224.5.5S9.777 57 9.5 57zM15.5 59h-2c-.276 0-.5-.224-.5-.5s.224-.5.5-.5h2c.276 0 .5.224.5.5S15.776 59 15.5 59zM18.5 50c-.177 0-.823 0-1 0-.276 0-.5.224-.5.5s.224.5.5.5c.177 0 .823 0 1 0 .276 0 .5-.224.5-.5S18.776 50 18.5 50zM18.5 52c-.177 0-4.823 0-5 0-.276 0-.5.224-.5.5s.224.5.5.5c.177 0 4.823 0 5 0 .276 0 .5-.224.5-.5S18.776 52 18.5 52zM23.5 54c-.177 0-2.823 0-3 0-.276 0-.5.224-.5.5s.224.5.5.5c.177 0 2.823 0 3 0 .276 0 .5-.224.5-.5S23.776 54 23.5 54z" />
  <g>
    <path fill="#fff" d="M72.5 31h-10c-.276 0-.5-.224-.5-.5s.224-.5.5-.5h10c.276 0 .5.224.5.5S72.776 31 72.5 31zM76.5 31h-2c-.276 0-.5-.224-.5-.5s.224-.5.5-.5h2c.276 0 .5.224.5.5S76.776 31 76.5 31zM81.5 33h-10c-.276 0-.5-.224-.5-.5s.224-.5.5-.5h10c.276 0 .5.224.5.5S81.777 33 81.5 33zM69.5 33h-1c-.276 0-.5-.224-.5-.5s.224-.5.5-.5h1c.276 0 .5.224.5.5S69.776 33 69.5 33zM66.47 33H64.5c-.276 0-.5-.224-.5-.5s.224-.5.5-.5h1.97c.276 0 .5.224.5.5S66.746 33 66.47 33zM75.5 29h-5c-.276 0-.5-.224-.5-.5s.224-.5.5-.5h5c.276 0 .5.224.5.5S75.777 29 75.5 29zM72.5 35h-2c-.276 0-.5-.224-.5-.5s.224-.5.5-.5h2c.276 0 .5.224.5.5S72.776 35 72.5 35z" />
  </g>
  <g>
    <path fill="#fdfcef" d="M31.5,70.5c0,0,6.567,0,8.5,0s3.5-1.567,3.5-3.5c0-1.781-1.335-3.234-3.055-3.455 C40.473,63.366,40.5,63.187,40.5,63c0-1.933-1.567-3.5-3.5-3.5c-1.032,0-1.95,0.455-2.59,1.165 c-0.384-1.808-1.987-3.165-3.91-3.165c-2.209,0-4,1.791-4,4c0,0.191,0.03,0.374,0.056,0.558C26.128,61.714,25.592,61.5,25,61.5 c-1.228,0-2.245,0.887-2.455,2.055C22.366,63.527,22.187,63.5,22,63.5c-1.933,0-3.5,1.567-3.5,3.5s1.567,3.5,3.5,3.5s2.5,0,2.5,0 V71h7V70.5z" />
    <path fill="#472b29" d="M38.25 66C38.112 66 38 65.888 38 65.75c0-1.223.995-2.218 2.218-2.218.034.009.737-.001 1.244.136.133.036.212.173.176.306-.036.134-.173.213-.306.176-.444-.12-1.1-.12-1.113-.118-.948 0-1.719.771-1.719 1.718C38.5 65.888 38.388 66 38.25 66zM26.5 70A.5.5 0 1 0 26.5 71 .5.5 0 1 0 26.5 70z" />
    <path fill="#472b29" d="M40,71h-8.5c-0.276,0-0.5-0.224-0.5-0.5s0.224-0.5,0.5-0.5H40c1.654,0,3-1.346,3-3 c0-1.496-1.125-2.768-2.618-2.959c-0.134-0.018-0.255-0.088-0.336-0.196s-0.115-0.244-0.094-0.377C39.975,63.314,40,63.16,40,63 c0-1.654-1.346-3-3-3c-0.85,0-1.638,0.355-2.219,1c-0.125,0.139-0.321,0.198-0.5,0.148c-0.182-0.049-0.321-0.195-0.36-0.379 C33.58,59.165,32.141,58,30.5,58c-1.93,0-3.5,1.57-3.5,3.5c0,0.143,0.021,0.28,0.041,0.418c0.029,0.203-0.063,0.438-0.242,0.54 s-0.396,0.118-0.556-0.01C25.878,62.155,25.449,62,25,62c-0.966,0-1.792,0.691-1.963,1.644c-0.048,0.267-0.296,0.446-0.569,0.405 C22.314,64.025,22.16,64,22,64c-1.654,0-3,1.346-3,3s1.346,3,3,3h2.5c0.276,0,0.5,0.224,0.5,0.5S24.776,71,24.5,71H22 c-2.206,0-4-1.794-4-4s1.794-4,4-4c0.059,0,0.116,0.002,0.174,0.006C22.588,61.82,23.711,61,25,61c0.349,0,0.689,0.061,1.011,0.18 C26.176,58.847,28.126,57,30.5,57c1.831,0,3.466,1.127,4.153,2.774C35.333,59.276,36.155,59,37,59c2.206,0,4,1.794,4,4 c0,0.048-0.001,0.095-0.004,0.142C42.739,63.59,44,65.169,44,67C44,69.206,42.206,71,40,71z" />
    <path fill="#472b29" d="M29.5,70c-0.159,0-0.841,0-1,0c-0.276,0-0.5,0.224-0.5,0.5s0.224,0.5,0.5,0.5c0.159,0,0.841,0,1,0 c0.276,0,0.5-0.224,0.5-0.5S29.776,70,29.5,70z" />
  </g>
  <g>
    <path fill="#fefdef" d="M58.708,26c2.401,0,4.354,1.794,4.354,4v40c0,2.206-1.953,4-4.354,4H41.292 c-2.401,0-4.354-1.794-4.354-4V30c0-2.206,1.953-4,4.354-4H58.708" />
    <path fill="#a2b3cb" d="M45 26.389H55V28.555999999999997H45z" />
    <path fill="#472b29" d="M43 25.5V27c0 1.105.896 2 2 2h10c1.104 0 2-.895 2-2v-1.5H43zM51.5 28c-.276 0-2.724 0-3 0S48 27.776 48 27.5s.224-.5.5-.5 2.724 0 3 0 .5.224.5.5S51.776 28 51.5 28zM53.5 28c-.276 0-.5-.224-.5-.5s.224-.5.5-.5.5.224.5.5S53.776 28 53.5 28zM56.625 72h-13.25C43.168 72 43 71.832 43 71.625s.168-.375.375-.375h13.25c.207 0 .375.168.375.375S56.832 72 56.625 72z" />
    <path fill="#a2b3cb" d="M49.994,44.173c0.373-0.435,0.969-0.726,1.492-0.798c0.074,0.581-0.149,1.161-0.447,1.524 c-0.373,0.435-0.895,0.726-1.492,0.726C49.397,45.117,49.621,44.608,49.994,44.173z" />
    <path fill="#472b29" d="M49.547,46c-0.166,0-0.313-0.11-0.359-0.269c-0.171-0.581,0.01-1.204,0.521-1.802l0,0 c0.412-0.48,1.073-0.835,1.725-0.925c0.106-0.015,0.201,0.014,0.279,0.074c0.08,0.061,0.132,0.151,0.145,0.25 c0.095,0.742-0.211,1.421-0.528,1.809C50.85,45.696,50.219,46,49.547,46z M50.279,44.417c-0.178,0.207-0.365,0.491-0.398,0.793 c0.325-0.078,0.627-0.269,0.873-0.556c0.144-0.175,0.295-0.463,0.35-0.796C50.782,43.98,50.482,44.18,50.279,44.417L50.279,44.417z" />
    <path fill="#a2b3cb" d="M48.268,54.625c0.743-0.008,0.753-0.366,1.808-0.366c0.967,0,1.154,0.366,1.893,0.366 c0.739,0,1.457-0.863,1.891-1.568c0.289-0.468,0.411-0.743,0.741-1.318c-0.767-0.315-1.218-0.887-1.381-1.611 c-0.046-0.207-0.069-0.426-0.069-0.655h0.371c0-1.201,1.103-1.876,1.103-1.876l-0.244-0.283c-0.576-0.66-1.425-0.939-2.166-0.939 c-0.987,0-1.239,0.688-2.063,0.688c-0.741,0-1.227-0.688-2.049-0.688s-1.654,0.487-2.221,1.32c-0.341,0.5-0.506,1.188-0.507,1.948 c-0.002,1.105,0.318,2.338,1.01,3.489C46.821,53.858,47.44,54.634,48.268,54.625z" />
    <path fill="#472b29" d="M48.253,55c-1.184,0-1.939-1.259-2.188-1.675c-0.688-1.144-1.066-2.452-1.064-3.683 c0.002-0.865,0.2-1.612,0.573-2.159C46.205,46.555,47.151,46,48.104,46c0.518,0,0.911,0.214,1.259,0.403 c0.281,0.153,0.524,0.285,0.79,0.285c0.29,0,0.488-0.118,0.739-0.268c0.313-0.188,0.704-0.42,1.323-0.42 c0.949,0,1.865,0.399,2.448,1.067c0.137,0.156,0.12,0.393-0.035,0.529c-0.156,0.137-0.393,0.122-0.529-0.036 c-0.443-0.507-1.147-0.81-1.884-0.81c-0.412,0-0.656,0.146-0.939,0.314c-0.293,0.175-0.626,0.374-1.123,0.374 c-0.456,0-0.824-0.2-1.148-0.376c-0.308-0.167-0.574-0.312-0.9-0.312c-0.704,0-1.418,0.432-1.911,1.156 c-0.287,0.423-0.44,1.024-0.442,1.738c-0.002,1.096,0.338,2.266,0.957,3.295c0.529,0.882,1.035,1.311,1.546,1.311 c0.004,0,0.007,0,0.011,0c0.266-0.003,0.4-0.058,0.587-0.133c0.257-0.104,0.575-0.233,1.225-0.233c0.58,0,0.929,0.124,1.209,0.223 c0.226,0.08,0.404,0.143,0.685,0.143c0.44,0,1.043-0.533,1.571-1.39c0.163-0.263,0.271-0.464,0.396-0.694 c0.045-0.083,0.092-0.171,0.145-0.266c-0.64-0.373-1.061-0.95-1.227-1.69c-0.052-0.234-0.078-0.482-0.078-0.737 c0-0.008,0.003-0.106,0.004-0.114c0.014-0.206,0.192-0.362,0.398-0.35c0.207,0.013,0.363,0.192,0.35,0.398 c-0.002,0.265,0.019,0.458,0.059,0.638c0.143,0.636,0.531,1.089,1.157,1.346c0.1,0.041,0.177,0.124,0.212,0.226 s0.024,0.214-0.029,0.308c-0.138,0.24-0.238,0.427-0.331,0.598c-0.131,0.243-0.245,0.454-0.416,0.731 C53.776,53.906,52.955,55,51.969,55c-0.409,0-0.677-0.095-0.935-0.187c-0.261-0.092-0.508-0.18-0.959-0.18 c-0.503,0-0.717,0.086-0.942,0.178C48.92,54.898,48.68,54.996,48.271,55C48.266,55,48.259,55,48.253,55z" />
    <path fill="#472b29" d="M59,26.4c1.985,0,3.6,1.615,3.6,3.6v40c0,1.985-1.615,3.6-3.6,3.6H41c-1.985,0-3.6-1.615-3.6-3.6V30 c0-1.985,1.615-3.6,3.6-3.6H59 M59,25H41c-2.761,0-5,2.239-5,5v40c0,2.761,2.239,5,5,5h18c2.761,0,5-2.239,5-5V30 C64,27.239,61.761,25,59,25L59,25z" />
  </g>
</svg>