<?xml version="1.0" encoding="utf-8"?>
<svg xmlns="http://www.w3.org/2000/svg" xmlns:xlink="http://www.w3.org/1999/xlink" viewBox="0 0 100 100" width="500" height="500">
  <path fill="#c7ede6" d="M89.014,56.118c0.3-0.616,0.566-1.264,0.796-1.943c2.633-7.77-1.349-17.078-9.733-19.325c-0.906-11.384-8.906-19.193-17.941-20.526C51.795,12.8,42.322,19.369,39.17,29.81c-3.799-1.346-7.501-1.182-10.99,0.857c-1.583,0.732-3.031,1.812-4.33,3.233c-1.907,2.086-3.147,4.719-3.652,7.495c-0.748,0.118-1.483,0.236-2.176,0.484c-4.04,1.449-6.589,4.431-7.288,8.923c-0.435,2.797,0.443,5.587,0.933,6.714c1.935,4.455,6.422,6.98,10.981,6.312c0.227-0.033,0.557,0.069,0.752,0.233c0.241,7.12,3.698,13.417,8.884,17.014c8.321,5.772,19.027,3.994,25.781-3.921c2.894,2.96,6.338,4.398,10.384,3.876c4.023-0.519,7.147-2.739,9.426-6.349c1.053,0.283,2.051,0.691,3.083,0.804c4.042,0.442,7.324-1.165,9.732-4.8c0.922-1.391,1.793-3.194,1.793-6.354C92.485,61.075,91.191,58.107,89.014,56.118z" />
  <path fill="#fff" d="M74.705 25.833h-10.03c-.276 0-.5-.224-.5-.5s.224-.5.5-.5h10.03c.276 0 .5.224.5.5S74.981 25.833 74.705 25.833zM77.587 25.833H76.14c-.276 0-.5-.224-.5-.5s.224-.5.5-.5h1.446c.276 0 .5.224.5.5S77.863 25.833 77.587 25.833zM81.641 25.833h-2.546c-.276 0-.5-.224-.5-.5s.224-.5.5-.5h2.546c.276 0 .5.224.5.5S81.918 25.833 81.641 25.833zM81.641 27.698h-9.617c-.276 0-.5-.224-.5-.5s.224-.5.5-.5h9.617c.276 0 .5.224.5.5S81.918 27.698 81.641 27.698zM70.293 27.698h-.58c-.276 0-.5-.224-.5-.5s.224-.5.5-.5h.58c.276 0 .5.224.5.5S70.569 27.698 70.293 27.698zM67.916 27.698H66.46c-.276 0-.5-.224-.5-.5s.224-.5.5-.5h1.456c.276 0 .5.224.5.5S68.192 27.698 67.916 27.698zM77.052 23.968h-5.028c-.276 0-.5-.224-.5-.5s.224-.5.5-.5h5.028c.276 0 .5.224.5.5S77.329 23.968 77.052 23.968zM77.052 22.103h-1.258c-.276 0-.5-.224-.5-.5s.224-.5.5-.5h1.258c.276 0 .5.224.5.5S77.329 22.103 77.052 22.103zM73.783 29.563h-1.759c-.276 0-.5-.224-.5-.5s.224-.5.5-.5h1.759c.276 0 .5.224.5.5S74.059 29.563 73.783 29.563z" />
  <path fill="#fdfcef" d="M43.149,68.09c1.71,0,3.194,0,3.215,0c1.916,0,3.469-1.52,3.469-3.396c0-1.636-1.182-3.001-2.756-3.323c0.018-0.143,0.031-0.288,0.031-0.436c0-1.942-1.609-3.517-3.593-3.517c-1.172,0-2.209,0.551-2.865,1.401c-0.168-2.162-2.141-3.83-4.45-3.554c-1.688,0.202-3.084,1.479-3.395,3.116c-0.1,0.525-0.089,1.034,0.01,1.512c-0.453-0.477-1.097-0.777-1.814-0.777c-1.313,0-2.385,1.001-2.47,2.265c-0.596-0.129-1.245-0.121-1.928,0.13c-1.306,0.48-2.236,1.683-2.29,3.047c-0.077,1.937,1.504,3.532,3.467,3.532c0.149,0,0.673,0,0.794,0h7.204 M37.267,68.09h0.327" />
  <path fill="#472b29" d="M46.363,68.59h-3.215c-0.276,0-0.5-0.224-0.5-0.5s0.224-0.5,0.5-0.5h3.215c1.638,0,2.97-1.299,2.97-2.896c0-1.363-0.991-2.555-2.356-2.833c-0.257-0.053-0.43-0.295-0.396-0.555c0.016-0.122,0.027-0.245,0.027-0.372c0-1.663-1.388-3.017-3.094-3.017c-0.978,0-1.878,0.439-2.47,1.206c-0.126,0.164-0.339,0.23-0.539,0.174c-0.198-0.06-0.339-0.234-0.354-0.441c-0.071-0.912-0.506-1.74-1.227-2.331c-0.742-0.61-1.687-0.88-2.665-0.765c-1.475,0.177-2.693,1.293-2.964,2.714c-0.084,0.441-0.081,0.885,0.009,1.315c0.046,0.219-0.06,0.441-0.257,0.545c-0.197,0.104-0.44,0.064-0.595-0.098c-0.381-0.401-0.897-0.622-1.452-0.622c-1.038,0-1.904,0.79-1.971,1.799c-0.01,0.146-0.082,0.279-0.198,0.366c-0.117,0.087-0.265,0.121-0.407,0.089c-0.568-0.125-1.109-0.088-1.65,0.111c-1.128,0.414-1.917,1.458-1.962,2.598c-0.031,0.781,0.253,1.526,0.8,2.096c0.567,0.591,1.338,0.916,2.167,0.916h7.998c0.276,0,0.5,0.224,0.5,0.5s-0.224,0.5-0.5,0.5h-7.998c-1.088,0-2.141-0.446-2.888-1.224c-0.737-0.768-1.121-1.771-1.079-2.828c0.062-1.539,1.114-2.944,2.617-3.497c0.55-0.201,1.112-0.277,1.689-0.228c0.331-1.269,1.506-2.198,2.882-2.198c0.437,0,0.856,0.091,1.24,0.265c0.011-0.197,0.035-0.395,0.072-0.593c0.351-1.844,1.925-3.291,3.827-3.519c1.246-0.153,2.464,0.199,3.419,0.983c0.667,0.548,1.146,1.255,1.398,2.048c0.717-0.568,1.609-0.882,2.557-0.882c2.257,0,4.094,1.802,4.094,4.017c0,0.021,0,0.04-0.001,0.06c1.604,0.52,2.727,2.012,2.727,3.7C50.333,66.843,48.551,68.59,46.363,68.59z M37.593,68.59h-0.326c-0.276,0-0.5-0.224-0.5-0.5s0.224-0.5,0.5-0.5h0.326c0.276,0,0.5,0.224,0.5,0.5S37.87,68.59,37.593,68.59z" />
  <path fill="#472b29" d="M44.813 63.297c-.018 0-.036-.002-.055-.006-.135-.03-.22-.164-.189-.299.034-.152.087-.3.155-.44.555-1.123 2.084-1.537 3.41-.924.125.058.18.206.121.332-.058.125-.206.179-.332.121-1.08-.5-2.314-.19-2.75.691-.052.105-.091.216-.116.329C45.031 63.218 44.927 63.297 44.813 63.297zM40.129 68.59h-1.006c-.276 0-.5-.224-.5-.5s.224-.5.5-.5h1.006c.276 0 .5.224.5.5S40.405 68.59 40.129 68.59z" />
  <path fill="#e0ded7" d="M68.198,43.315c0,2.364,0.031,4.729-0.007,7.092c-0.075,4.72-1.692,8.88-4.635,12.55c-1.527,1.904-3.469,3.334-5.391,4.791c-2.392,1.812-4.777,3.636-7.164,5.454c-0.543,0.414-0.842,0.418-1.371,0.014c-3.147-2.403-6.32-4.772-9.433-7.218c-3.916-3.077-6.343-7.099-7.391-11.966c-0.407-1.89-0.395-3.801-0.393-5.716c0.005-4.281,0.005-8.562,0.007-12.843c0-0.848,0.155-0.997,0.999-1.017c5.024-0.121,9.715-1.35,13.878-4.255c0.847-0.591,1.61-1.305,2.394-1.983c0.435-0.376,0.82-0.404,1.215-0.018c2.694,2.627,5.927,4.29,9.519,5.298c1.846,0.518,3.729,0.837,5.653,0.881c0.43,0.01,0.859,0.055,1.289,0.075c0.613,0.028,0.836,0.254,0.837,0.908c0.004,2.652,0.002,5.303,0.002,7.955C68.204,43.315,68.201,43.315,68.198,43.315z" />
  <path fill="#472b29" d="M50.303,74.216c-0.355,0-0.709-0.147-1.097-0.443c-0.966-0.737-1.934-1.472-2.901-2.205c-2.152-1.633-4.378-3.32-6.54-5.02c-3.978-3.125-6.549-7.287-7.644-12.37c-0.414-1.924-0.411-3.867-0.408-5.746l0.006-12.96c0.002-1.223,0.458-1.688,1.683-1.717c5.279-0.127,9.694-1.478,13.495-4.13c0.629-0.439,1.208-0.947,1.819-1.486l0.517-0.451c0.726-0.629,1.514-0.623,2.162,0.01c2.459,2.397,5.475,4.074,9.22,5.125c1.902,0.534,3.694,0.814,5.479,0.854c0.261,0.006,0.521,0.024,0.78,0.043c0.175,0.013,0.35,0.025,0.525,0.033c0.997,0.046,1.503,0.587,1.505,1.606c0.003,1.929,0.003,3.857,0.002,5.786v2.169c0,0.032-0.002,0.064-0.007,0.097l0.006,2.104c0.007,1.635,0.014,3.27-0.013,4.903c-0.076,4.741-1.687,9.107-4.789,12.976c-1.505,1.878-3.397,3.31-5.228,4.693l-0.287,0.218c-1.648,1.249-3.293,2.503-4.938,3.758l-2.226,1.695C51.025,74.064,50.664,74.216,50.303,74.216z M33.132,35.174c-0.006,0.06-0.012,0.153-0.012,0.299l-0.006,12.961c-0.004,1.889-0.006,3.672,0.377,5.449c1.023,4.756,3.426,8.646,7.14,11.563c2.153,1.692,4.373,3.376,6.521,5.005c0.969,0.735,1.938,1.47,2.904,2.208c0.187,0.142,0.254,0.156,0.257,0.156c-0.008-0.001,0.064-0.018,0.266-0.17l2.224-1.695c1.646-1.255,3.292-2.51,4.941-3.76l0.288-0.219c1.843-1.395,3.584-2.711,4.98-4.452c2.902-3.621,4.41-7.7,4.48-12.123c0.026-1.625,0.02-3.25,0.013-4.875l-0.006-2.207c0-0.033,0.003-0.066,0.007-0.099l0.001-2.071c0-1.928,0.001-3.855-0.003-5.783c0-0.101-0.007-0.163-0.014-0.201c-0.021-0.001-0.076-0.006-0.155-0.009c-0.187-0.009-0.374-0.021-0.561-0.035c-0.237-0.017-0.475-0.034-0.712-0.039c-1.903-0.044-3.809-0.341-5.826-0.907c-3.976-1.115-7.188-2.905-9.818-5.471c-0.053-0.051-0.086-0.071-0.099-0.077c-0.004,0.007-0.064,0.032-0.17,0.124l-0.508,0.444c-0.614,0.54-1.249,1.099-1.943,1.583c-4.033,2.814-8.699,4.247-14.263,4.382C33.288,35.159,33.192,35.167,33.132,35.174z" />
  <path fill="#c0d078" d="M64.543,44.828c0,1.881,0.025,3.762-0.005,5.643c-0.06,3.755-1.346,7.066-3.688,9.985c-1.215,1.515-2.76,2.653-4.289,3.812c-1.903,1.442-3.8,2.893-5.7,4.339c-0.432,0.329-0.67,0.332-1.091,0.011c-2.504-1.912-5.028-3.797-7.505-5.743c-3.115-2.448-5.047-5.648-5.881-9.521c-0.324-1.504-0.314-3.024-0.313-4.548c0.004-3.406,0.004-6.812,0.005-10.218c0-0.675,0.124-0.793,0.795-0.809c3.997-0.096,7.729-1.074,11.042-3.386c0.674-0.47,1.281-1.038,1.905-1.578c0.346-0.299,0.652-0.321,0.967-0.015c2.143,2.09,4.716,3.413,7.574,4.216c1.469,0.412,2.967,0.666,4.498,0.701c0.342,0.008,0.683,0.044,1.025,0.06c0.488,0.022,0.665,0.202,0.666,0.722c0.004,2.11,0.001,4.219,0.001,6.329C64.547,44.828,64.545,44.828,64.543,44.828z" />
  <path fill="#472b29" d="M50.305,69.234c-0.243,0-0.486-0.106-0.763-0.317l-2.301-1.749c-1.744-1.322-3.488-2.646-5.209-3.997c-3.131-2.46-5.154-5.736-6.016-9.737c-0.325-1.513-0.323-3.05-0.321-4.535l0.006-10.31c0-0.876,0.282-1.164,1.16-1.185c4.237-0.102,7.781-1.187,10.836-3.318c0.514-0.358,1.002-0.788,1.476-1.205l0.399-0.349c0.679-0.588,1.216-0.252,1.474,0c1.979,1.931,4.403,3.279,7.413,4.123c1.532,0.43,2.973,0.654,4.405,0.688c0.204,0.005,0.408,0.02,0.612,0.033c0.141,0.011,0.281,0.021,0.422,0.026c0.697,0.032,1.022,0.381,1.023,1.097c0.003,1.583,0.003,3.165,0.002,4.747v1.583c0,0.024-0.002,0.048-0.007,0.07l0.005,1.695c0.006,1.295,0.011,2.589-0.01,3.883c-0.06,3.732-1.328,7.169-3.77,10.214c-1.183,1.475-2.678,2.606-4.124,3.701l-0.231,0.175c-1.332,1.009-2.661,2.022-3.989,3.035l-1.711,1.304C50.8,69.125,50.552,69.234,50.305,69.234z M50.329,32.955c-0.065,0-0.146,0.041-0.266,0.145l-0.395,0.345c-0.488,0.43-0.993,0.874-1.541,1.257c-3.18,2.219-6.858,3.348-11.248,3.453c-0.309,0.007-0.38,0.039-0.394,0.049c-0.003,0.008-0.034,0.08-0.034,0.386l-0.006,10.218c-0.002,1.539-0.004,3.035,0.304,4.469c0.824,3.826,2.758,6.957,5.746,9.306c1.718,1.349,3.459,2.669,5.199,3.989c0.769,0.583,1.536,1.166,2.303,1.751c0.272,0.209,0.325,0.225,0.635-0.011l1.711-1.305c1.329-1.014,2.658-2.026,3.991-3.036l0.231-0.176c1.41-1.066,2.867-2.17,3.991-3.571c2.336-2.912,3.549-6.195,3.605-9.757c0.021-1.289,0.016-2.578,0.01-3.867l-0.005-1.77c0-0.024,0.002-0.049,0.007-0.071v-1.512c0.001-1.582,0.001-3.164-0.002-4.745c-0.001-0.335-0.036-0.337-0.309-0.349c-0.146-0.007-0.293-0.018-0.439-0.028c-0.192-0.013-0.385-0.027-0.577-0.031c-1.495-0.034-2.997-0.269-4.591-0.715c-3.133-0.879-5.662-2.289-7.733-4.309C50.455,33.003,50.4,32.955,50.329,32.955z" />
  <path fill="#88ae45" d="M64.543,44.83h0.006c0-2.11,0.002-4.219-0.002-6.329c-0.001-0.52-0.178-0.7-0.666-0.722c-0.342-0.016-0.683-0.052-1.025-0.06c-1.531-0.035-3.029-0.289-4.498-0.701c-2.858-0.802-5.43-2.125-7.574-4.215c-0.122-0.119-0.243-0.174-0.366-0.197v36.226c0.133-0.028,0.271-0.093,0.441-0.222c1.9-1.447,3.797-2.897,5.7-4.339c1.53-1.159,3.074-2.297,4.289-3.812c2.342-2.919,3.628-6.23,3.688-9.985C64.568,48.593,64.543,46.711,64.543,44.83z" />
  <path fill="#472b29" d="M50.42,69.207c-0.085,0-0.169-0.029-0.236-0.083c-0.088-0.071-0.139-0.179-0.139-0.292V32.606c0-0.111,0.05-0.217,0.135-0.288c0.086-0.071,0.198-0.101,0.308-0.081c0.211,0.039,0.393,0.136,0.559,0.296c1.979,1.932,4.404,3.28,7.414,4.124c1.532,0.43,2.973,0.654,4.405,0.688c0.204,0.005,0.408,0.02,0.612,0.033c0.141,0.011,0.281,0.021,0.422,0.026c0.696,0.032,1.022,0.381,1.023,1.097c0.003,1.583,0.003,3.165,0.002,4.747v1.583c0,0.024-0.002,0.048-0.007,0.07l0.005,1.695c0.006,1.295,0.011,2.589-0.01,3.883c-0.06,3.732-1.328,7.169-3.77,10.214c-1.183,1.475-2.678,2.606-4.124,3.701l-0.231,0.175c-1.34,1.016-2.677,2.034-4.014,3.054l-1.687,1.285c-0.204,0.156-0.392,0.248-0.59,0.291C50.472,69.204,50.446,69.207,50.42,69.207z M50.795,33.33v34.858l1.525-1.162c1.337-1.02,2.675-2.039,4.015-3.055l0.231-0.176c1.41-1.066,2.867-2.17,3.991-3.571c2.336-2.912,3.549-6.195,3.605-9.757c0.021-1.289,0.016-2.578,0.01-3.867l-0.005-1.77c0-0.024,0.002-0.049,0.007-0.071v-1.512c0.001-1.582,0.001-3.164-0.002-4.745c-0.001-0.335-0.036-0.337-0.309-0.349c-0.146-0.007-0.293-0.018-0.439-0.028c-0.192-0.013-0.385-0.027-0.577-0.031c-1.495-0.034-2.997-0.269-4.591-0.715C55.259,36.538,52.814,35.212,50.795,33.33z" />
  <defs>
    <path id="FyCPXRMPs~P70xcgY9hdAa" d="M64.169,45.094L64.169,45.094c0-2.033,0.003-4.182,0-6.215c-0.001-0.501-0.132-0.736-0.598-0.758c-0.327-0.015-0.653-0.05-0.98-0.058c-1.463-0.034-2.894-0.278-4.298-0.675c-2.731-0.773-5.083-1.846-7.132-3.86c-0.117-0.115-0.259-0.261-0.376-0.284v34.971c0.173-0.086,4.05-3.069,5.869-4.459c1.462-1.117,2.938-2.213,4.099-3.673c2.238-2.813,3.37-5.984,3.427-9.603C64.209,48.669,64.169,46.907,64.169,45.094z" />
  </defs>
  <clipPath id="FyCPXRMPs~P70xcgY9hdAb">
    <use xlink:href="#FyCPXRMPs~P70xcgY9hdAa" />
  </clipPath>
  <g clip-path="url(#FyCPXRMPs~P70xcgY9hdAb)">
    <path fill="#6f913d" d="M40.576 48.164L38.169 45.737 58.249 25.488 60.656 27.915zM44.117 55.407L41.71 52.98 61.79 32.731 64.197 35.158zM47.657 62.65L45.25 60.223 65.331 39.974 67.738 42.401zM51.198 69.893L48.791 67.466 68.872 47.217 71.279 49.644z" />
  </g>
  <path fill="#fdfcef" d="M71.502,71.518c0,0,10.616,0,10.681,0c2.452,0,4.439-1.987,4.439-4.439c0-2.139-1.513-3.924-3.527-4.344c0.023-0.187,0.039-0.377,0.039-0.57c0-2.539-2.058-4.598-4.597-4.598c-1.499,0-2.827,0.721-3.666,1.831c-0.215-2.826-2.739-5.007-5.693-4.646c-2.16,0.264-3.947,1.934-4.344,4.073c-0.127,0.686-0.114,1.352,0.013,1.977c-0.579-0.624-1.403-1.016-2.322-1.016c-1.68,0-3.052,1.308-3.16,2.961c-0.763-0.169-1.593-0.158-2.467,0.17c-1.671,0.627-2.861,2.2-2.93,3.984c-0.099,2.533,1.925,4.617,4.435,4.617c0.191,0,0.861,0,1.015,0h9.218" />
  <path fill="#472b29" d="M82.183,72.018H71.503c-0.276,0-0.5-0.224-0.5-0.5s0.224-0.5,0.5-0.5h10.681c2.172,0,3.938-1.768,3.938-3.939c0-1.855-1.315-3.477-3.129-3.854c-0.254-0.053-0.425-0.291-0.394-0.549c0.02-0.168,0.035-0.338,0.035-0.511c0-2.26-1.838-4.098-4.098-4.098c-1.292,0-2.483,0.595-3.267,1.633c-0.126,0.165-0.343,0.237-0.54,0.178c-0.2-0.059-0.342-0.234-0.358-0.441c-0.094-1.238-0.7-2.402-1.664-3.191c-0.973-0.797-2.204-1.147-3.47-0.997c-1.946,0.238-3.556,1.747-3.913,3.669c-0.111,0.599-0.107,1.2,0.012,1.786c0.044,0.22-0.062,0.442-0.262,0.544c-0.197,0.104-0.441,0.062-0.595-0.104c-0.513-0.552-1.207-0.856-1.955-0.856c-1.4,0-2.569,1.096-2.661,2.494c-0.01,0.146-0.082,0.28-0.199,0.368c-0.116,0.087-0.266,0.118-0.408,0.088c-0.754-0.167-1.469-0.117-2.183,0.149c-1.499,0.562-2.547,1.983-2.606,3.535c-0.043,1.084,0.347,2.109,1.097,2.889c0.749,0.779,1.758,1.209,2.839,1.209h10.233c0.276,0,0.5,0.224,0.5,0.5s-0.224,0.5-0.5,0.5H58.403c-1.355,0-2.62-0.538-3.56-1.516c-0.94-0.977-1.429-2.263-1.376-3.621c0.076-1.949,1.384-3.73,3.255-4.432c0.721-0.271,1.464-0.361,2.221-0.279c0.362-1.655,1.842-2.885,3.582-2.885c0.603,0,1.193,0.151,1.72,0.432c0.004-0.327,0.036-0.656,0.098-0.984c0.436-2.346,2.398-4.187,4.774-4.478c1.534-0.19,3.039,0.243,4.226,1.216c0.899,0.737,1.544,1.742,1.847,2.852c0.919-0.808,2.095-1.256,3.348-1.256c2.811,0,5.098,2.287,5.098,5.098c0,0.064-0.002,0.128-0.005,0.191c2.048,0.627,3.492,2.547,3.492,4.723C87.122,69.802,84.906,72.018,82.183,72.018z" />
  <path fill="#fdfcef" d="M68.93,61.739c-1.642-0.108-3.055,1.026-3.157,2.533c-0.013,0.187-0.004,0.371,0.023,0.55c-0.317-0.358-0.786-0.6-1.324-0.636c-0.985-0.065-1.836,0.586-1.959,1.471c-0.179-0.049-0.366-0.082-0.56-0.095c-1.437-0.094-2.674,0.898-2.762,2.216" />
  <path fill="#472b29" d="M59.191,68.029c-0.006,0-0.011,0-0.017-0.001c-0.138-0.009-0.242-0.128-0.232-0.266c0.099-1.454,1.434-2.565,3.027-2.448c0.117,0.007,0.235,0.022,0.354,0.044c0.26-0.878,1.172-1.496,2.166-1.42c0.376,0.024,0.729,0.138,1.034,0.329c0-0.004,0-0.008,0.001-0.012c0.11-1.642,1.646-2.903,3.422-2.766c0.138,0.009,0.242,0.128,0.232,0.266c-0.008,0.132-0.118,0.233-0.249,0.233c-0.005,0-0.011,0-0.017-0.001c-1.504-0.093-2.798,0.934-2.891,2.301c-0.011,0.163-0.004,0.33,0.021,0.498c0.017,0.109-0.041,0.216-0.142,0.263c-0.101,0.045-0.219,0.021-0.293-0.061c-0.284-0.322-0.704-0.523-1.152-0.553c-0.852-0.04-1.589,0.498-1.694,1.256c-0.011,0.071-0.051,0.135-0.11,0.175c-0.059,0.04-0.133,0.053-0.203,0.032c-0.171-0.046-0.343-0.075-0.512-0.087c-1.303-0.063-2.417,0.805-2.496,1.983C59.431,67.927,59.322,68.029,59.191,68.029z" />
  <path fill="#fdfcef" d="M83.98,63.255c-1.543-0.727-3.327-0.213-3.985,1.15c-0.082,0.169-0.142,0.344-0.182,0.521" />
  <path fill="#472b29" d="M79.812,65.175c-0.019,0-0.037-0.002-0.057-0.007c-0.135-0.031-0.218-0.165-0.187-0.3c0.047-0.201,0.114-0.395,0.201-0.573c0.716-1.482,2.652-2.054,4.316-1.268c0.125,0.06,0.179,0.208,0.12,0.333c-0.06,0.126-0.21,0.177-0.333,0.12c-1.418-0.672-3.057-0.206-3.653,1.032c-0.071,0.146-0.126,0.304-0.165,0.469C80.029,65.097,79.926,65.175,79.812,65.175z" />
  <path fill="#fff" d="M17.546 49.354H7.515c-.276 0-.5-.224-.5-.5s.224-.5.5-.5h10.03c.276 0 .5.224.5.5S17.822 49.354 17.546 49.354zM20.427 49.354h-1.446c-.276 0-.5-.224-.5-.5s.224-.5.5-.5h1.446c.276 0 .5.224.5.5S20.704 49.354 20.427 49.354zM24.482 49.354h-2.546c-.276 0-.5-.224-.5-.5s.224-.5.5-.5h2.546c.276 0 .5.224.5.5S24.758 49.354 24.482 49.354zM24.482 51.219h-9.617c-.276 0-.5-.224-.5-.5s.224-.5.5-.5h9.617c.276 0 .5.224.5.5S24.758 51.219 24.482 51.219zM13.133 51.219h-.58c-.276 0-.5-.224-.5-.5s.224-.5.5-.5h.58c.276 0 .5.224.5.5S13.41 51.219 13.133 51.219zM10.756 51.219H9.3c-.276 0-.5-.224-.5-.5s.224-.5.5-.5h1.456c.276 0 .5.224.5.5S11.033 51.219 10.756 51.219zM19.893 47.489h-5.028c-.276 0-.5-.224-.5-.5s.224-.5.5-.5h5.028c.276 0 .5.224.5.5S20.17 47.489 19.893 47.489zM19.893 45.625h-1.258c-.276 0-.5-.224-.5-.5s.224-.5.5-.5h1.258c.276 0 .5.224.5.5S20.17 45.625 19.893 45.625zM16.624 53.084h-1.759c-.276 0-.5-.224-.5-.5s.224-.5.5-.5h1.759c.276 0 .5.224.5.5S16.9 53.084 16.624 53.084z" />
  <path fill="#c4c1b7" d="M73.784,52.847v-5.414c0-2.968-2.494-5.319-5.76-5.319c-3.212,0-5.975,2.405-5.975,5.373v5.36h2.18v-5.293c0-1.761,1.875-3.229,3.773-3.177c1.677,0.045,3.367,1.387,3.367,3.145v5.325H73.784z" />
  <path fill="#472b29" d="M73.784,53.222h-2.416c-0.207,0-0.375-0.168-0.375-0.375v-5.324c0-1.585-1.582-2.732-3.002-2.771c-0.929-0.03-1.884,0.354-2.561,1.012c-0.533,0.52-0.827,1.155-0.827,1.79v5.293c0,0.207-0.168,0.375-0.375,0.375h-2.18c-0.207,0-0.375-0.168-0.375-0.375v-5.36c0-3.116,2.908-5.748,6.351-5.748c3.44,0,6.135,2.501,6.135,5.694v5.414C74.159,53.054,73.991,53.222,73.784,53.222z M71.743,52.472h1.666v-5.039c0-2.772-2.365-4.944-5.385-4.944c-3.036,0-5.601,2.289-5.601,4.998v4.985h1.43v-4.918c0-0.84,0.374-1.666,1.054-2.327c0.82-0.799,2.009-1.262,3.104-1.225c1.803,0.049,3.732,1.475,3.732,3.521V52.472z" />
  <path fill="#ee3e54" d="M67.916 50.760999999999996A8.916 8.916 0 1 0 67.916 68.593A8.916 8.916 0 1 0 67.916 50.760999999999996Z" />
  <path fill="#472b29" d="M67.916,69.192c-5.247,0-9.516-4.269-9.516-9.516s4.269-9.516,9.516-9.516c5.248,0,9.517,4.269,9.517,9.516S73.164,69.192,67.916,69.192z M67.916,51.36c-4.586,0-8.316,3.73-8.316,8.316s3.73,8.316,8.316,8.316s8.317-3.73,8.317-8.316S72.502,51.36,67.916,51.36z" />
  <path fill="#e0ddd3" d="M67.916 52.814A6.863 6.863 0 1 0 67.916 66.54A6.863 6.863 0 1 0 67.916 52.814Z" />
  <path fill="#472b29" d="M67.916,66.915c-3.99,0-7.237-3.247-7.237-7.238c0-3.99,3.247-7.237,7.237-7.237c3.991,0,7.238,3.247,7.238,7.237C75.154,63.668,71.907,66.915,67.916,66.915z M67.916,53.189c-3.577,0-6.487,2.91-6.487,6.487c0,3.578,2.91,6.488,6.487,6.488c3.578,0,6.488-2.91,6.488-6.488C74.404,56.099,71.494,53.189,67.916,53.189z" />
  <path fill="#efede8" d="M67.916 56.303A3.374 3.374 0 1 0 67.916 63.051A3.374 3.374 0 1 0 67.916 56.303Z" />
  <path fill="#472b29" d="M67.916 63.3c-1.998 0-3.623-1.626-3.623-3.624s1.625-3.624 3.623-3.624 3.624 1.626 3.624 3.624S69.914 63.3 67.916 63.3zM67.916 56.552c-1.722 0-3.123 1.401-3.123 3.124s1.401 3.124 3.123 3.124c1.723 0 3.124-1.401 3.124-3.124S69.638 56.552 67.916 56.552zM67.916 54.231c-.069 0-.125-.056-.125-.125v-1.288c0-.069.056-.125.125-.125s.125.056.125.125v1.288C68.041 54.175 67.985 54.231 67.916 54.231zM67.916 66.66c-.069 0-.125-.056-.125-.125v-1.288c0-.069.056-.125.125-.125s.125.056.125.125v1.288C68.041 66.604 67.985 66.66 67.916 66.66zM74.774 59.801h-1.288c-.069 0-.125-.056-.125-.125s.056-.125.125-.125h1.288c.069 0 .125.056.125.125S74.843 59.801 74.774 59.801zM62.346 59.801h-1.288c-.069 0-.125-.056-.125-.125s.056-.125.125-.125h1.288c.069 0 .125.056.125.125S62.416 59.801 62.346 59.801zM71.855 55.863c-.032 0-.063-.012-.088-.036-.049-.049-.05-.128-.001-.177l.91-.911c.049-.049.128-.05.177-.001s.05.128.001.177l-.91.911C71.92 55.85 71.887 55.863 71.855 55.863zM63.066 64.651c-.032 0-.064-.013-.089-.037-.049-.049-.048-.128.001-.177l.911-.91c.049-.049.128-.048.177.001s.048.128-.001.177l-.911.91C63.13 64.639 63.098 64.651 63.066 64.651zM72.765 64.651c-.032 0-.064-.012-.089-.036l-.91-.91c-.048-.049-.048-.129 0-.178.049-.049.129-.049.178 0l.91.91c.048.049.048.129 0 .178C72.83 64.639 72.798 64.651 72.765 64.651zM63.977 55.863c-.032 0-.064-.012-.089-.036l-.911-.911c-.048-.049-.048-.129 0-.178.049-.049.129-.049.178 0l.911.911c.048.049.048.129 0 .178C64.042 55.851 64.009 55.863 63.977 55.863z" />
</svg>